# xmcd
#
# Track frame offsets:
# 150
# 15188
# 28036
# 43878
# 54571
# 66588
# 81644
# 97934
# 112179
# 132619
# 149526
# 162335
#
# Disc length: 2363 seconds
#
#
# Revision: 0
# Processed by: cddbd v1.5PL3 Copyright (c) Steve Scherf et al.
# Submitted via: FreeRIP 2.53 
#
DISCID=b209390c
DTITLE=Anderson, Bill - Best Of
DYEAR=1900
DGENRE=Country
TTITLE0=Deck Of Cards
TTITLE1=Still
TTITLE2=Mama Sang A Song
TTITLE3=I Get The Fever
TTITLE4=My Life(Throw It Away If You Want To)
TTITLE5=Green Green Grass Of Home
TTITLE6=Detroit City
TTITLE7=Unicorn
TTITLE8=I Wonder If God Likes Country Music(Roy Acuff)
TTITLE9=Southern Fried
TTITLE10=Thank You Darling
TTITLE11=Mr. Peepers
EXTD=
EXTT0=
EXTT1=
EXTT2=
EXTT3=
EXTT4=
EXTT5=
EXTT6=
EXTT7=
EXTT8=
EXTT9=
EXTT10=
EXTT11=
PLAYORDER=
